# xmcd
#
# Track frame offsets:
#	150
#	11997
#	24562
#	39135
#	51387
#	64127
#	78292
#	92465
#	104820
#	118585
#	129370
#	143202
#	156947
#	171252
#	185817
#	199500
#	213485
#	227582
#	240852
#	253655
#
# Disc length: 3571 seconds
#
# Revision: 1
# Processed by: cddbd v1.5.1PL0 Copyright (c) Steve Scherf et al.
# Submitted via: EasyCDDAExtractor 7.0.6.1
#
DISCID=120df114
DTITLE=Bing Crosby - Bing Crosby  Bing Sings Country
DYEAR=1900
DGENRE=Country
TTITLE0=You Are My Sunshine
TTITLE1=Along The Navajo Trail
TTITLE2=San Fernando Valley
TTITLE3=I'm An Old Cowhand
TTITLE4=Ridin' Down The Canyon
TTITLE5=Prairieland Lullaby
TTITLE6=Whistling In The Wildwood
TTITLE7=Take Me Back To My Boots and Saddle
TTITLE8=Empty Saddles
TTITLE9=El Rancho Grande
TTITLE10=Silver On The Sage
TTITLE11=Pistol Packin' Mama
TTITLE12=Twilight On The Trail
TTITLE13=Along The Santa Fe trail
TTITLE14=Sierra Sue
TTITLE15=Legend Of Old California
TTITLE16=Tumbling Tumbleweeds
TTITLE17=The Singing Hills
TTITLE18=Sioux City Sue
TTITLE19=The Last Roundup
EXTD=
EXTT0=
EXTT1=
EXTT2=
EXTT3=
EXTT4=
EXTT5=
EXTT6=
EXTT7=
EXTT8=
EXTT9=
EXTT10=
EXTT11=
EXTT12=
EXTT13=
EXTT14=
EXTT15=
EXTT16=
EXTT17=
EXTT18=
EXTT19=
PLAYORDER=
